<?xml version="1.0" standalone="no"?>
<!DOCTYPE svg PUBLIC "-//W3C//DTD SVG 20010904//EN"
 "http://www.w3.org/TR/2001/REC-SVG-20010904/DTD/svg10.dtd">
<svg version="1.0" xmlns="http://www.w3.org/2000/svg"
 width="304.000000pt" height="304.000000pt" viewBox="0 0 304.000000 304.000000"
 preserveAspectRatio="xMidYMid meet">
<metadata>
Created by potrace 1.14, written by Peter Selinger 2001-2017
</metadata>
<g transform="translate(0.000000,304.000000) scale(0.100000,-0.100000)"
fill="#000000" stroke="none">
<path d="M820 2001 c-72 -25 -114 -74 -141 -162 -19 -62 -20 -89 -17 -331 l3
-263 32 -67 c22 -48 42 -74 70 -92 98 -64 290 -60 371 9 45 38 74 116 80 218
l5 87 -97 0 -96 0 0 -50 c0 -74 -19 -149 -40 -160 -24 -13 -66 -13 -90 0 -35
18 -40 65 -40 340 0 326 6 350 87 350 59 0 82 -46 83 -162 l0 -58 95 0 95 0 0
73 c0 131 -48 228 -128 263 -60 26 -206 29 -272 5z"/>
<path d="M1466 1983 c-2 -10 -44 -214 -91 -453 -47 -239 -88 -443 -91 -452 -5
-16 4 -18 89 -18 l94 0 19 103 19 102 74 3 c49 2 77 -1 82 -9 3 -6 12 -54 19
-105 l13 -94 93 0 c52 0 94 3 94 8 -1 4 -43 214 -93 467 l-93 460 -111 3
c-100 2 -112 1 -117 -15z m168 -555 l6 -38 -59 0 c-51 0 -59 2 -55 18 2 9 13
80 24 157 12 77 24 149 28 160 5 17 20 -59 56 -297z"/>
<path d="M1860 1930 l0 -70 75 0 75 0 0 -400 0 -400 100 0 100 0 0 400 0 400
75 0 75 0 0 70 0 70 -250 0 -250 0 0 -70z"/>
</g>
</svg>
